/* XPM */
static char * live_installer_xpm[] = {
"32 32 246 2",
"  	c None",
". 	c #322E2E",
"+ 	c #322E2F",
"@ 	c #322F2E",
"# 	c #322F2F",
"$ 	c #322F2D",
"% 	c #312F2F",
"& 	c #312E2E",
"* 	c #312F2E",
"= 	c #322D2F",
"- 	c #33302F",
"; 	c #312E2F",
"> 	c #3A3737",
", 	c #312D2D",
"' 	c #312E2D",
") 	c #312D2E",
"! 	c #353232",
"~ 	c #3C3939",
"{ 	c #302B2B",
"] 	c #474444",
"^ 	c #312C2D",
"/ 	c #302D2D",
"( 	c #343131",
"_ 	c #2E2A2B",
": 	c #302C2C",
"< 	c #3B3939",
"[ 	c #413E3E",
"} 	c #2B2828",
"| 	c #575454",
"1 	c #504D4D",
"2 	c #332F2F",
"3 	c #2F2C2C",
"4 	c #2F2C2D",
"5 	c #393636",
"6 	c #4B4848",
"7 	c #363333",
"8 	c #424040",
"9 	c #464343",
"0 	c #2F2D2B",
"a 	c #2F2B2C",
"b 	c #332F30",
"c 	c #6A6767",
"d 	c #4D4B4A",
"e 	c #2D2A2A",
"f 	c #2E2B2B",
"g 	c #2E2C2B",
"h 	c #2F2B2B",
"i 	c #2E2B2C",
"j 	c #2C2929",
"k 	c #2A2727",
"l 	c #343030",
"m 	c #585656",
"n 	c #4C4A4A",
"o 	c #292626",
"p 	c #454242",
"q 	c #4A4747",
"r 	c #504D4E",
"s 	c #333030",
"t 	c #484545",
"u 	c #777575",
"v 	c #2D292A",
"w 	c #2E2B2A",
"x 	c #2D2B2A",
"y 	c #242121",
"z 	c #272424",
"A 	c #494747",
"B 	c #5A5858",
"C 	c #545252",
"D 	c #393736",
"E 	c #504C4C",
"F 	c #7C7A7A",
"G 	c #373535",
"H 	c #9C9A9B",
"I 	c #6C6A6A",
"J 	c #727070",
"K 	c #4F4D4D",
"L 	c #6D6B6B",
"M 	c #8B8A8A",
"N 	c #383535",
"O 	c #2D2A29",
"P 	c #2C2A2A",
"Q 	c #2C292A",
"R 	c #2C2A29",
"S 	c #3B3A3A",
"T 	c #737171",
"U 	c #CFCDCD",
"V 	c #FFFFFF",
"W 	c #EBEBEB",
"X 	c #BFBEBE",
"Y 	c #B2B1B1",
"Z 	c #CBCBCB",
"` 	c #BBBBBA",
" .	c #ACACAC",
"..	c #AEAEAE",
"+.	c #444141",
"@.	c #2B2829",
"#.	c #262424",
"$.	c #8D8B8B",
"%.	c #E4E3E3",
"&.	c #FEFEFE",
"*.	c #FDFDFD",
"=.	c #F7F8F8",
"-.	c #F1F0F0",
";.	c #E9E8E8",
">.	c #ACABAB",
",.	c #2B2929",
"'.	c #2C2928",
").	c #2A2828",
"!.	c #D2D2D2",
"~.	c #949292",
"{.	c #908F8E",
"].	c #A8A7A7",
"^.	c #DBDBDB",
"/.	c #FBFBFB",
"(.	c #D2D1D1",
"_.	c #7C7B7A",
":.	c #3E3D3C",
"<.	c #2A2827",
"[.	c #D9D8D8",
"}.	c #E7E7E7",
"|.	c #A2A1A1",
"1.	c #474545",
"2.	c #1B1918",
"3.	c #211E1E",
"4.	c #232121",
"5.	c #232120",
"6.	c #211F1F",
"7.	c #1E1B1B",
"8.	c #929191",
"9.	c #E1E0E0",
"0.	c #E1E1E1",
"a.	c #A1A0A0",
"b.	c #5E5C5D",
"c.	c #2A2728",
"d.	c #B7B7B7",
"e.	c #9E9D9D",
"f.	c #413F3F",
"g.	c #272525",
"h.	c #292727",
"i.	c #282625",
"j.	c #AAAAA9",
"k.	c #DDDDDD",
"l.	c #787676",
"m.	c #4A4848",
"n.	c #444242",
"o.	c #2F2D2D",
"p.	c #292827",
"q.	c #282626",
"r.	c #242222",
"s.	c #6E6C6C",
"t.	c #817F7F",
"u.	c #282627",
"v.	c #464444",
"w.	c #939292",
"x.	c #EAEAEA",
"y.	c #A4A3A3",
"z.	c #282525",
"A.	c #504E4E",
"B.	c #1E1C1C",
"C.	c #282526",
"D.	c #272526",
"E.	c #858484",
"F.	c #F9F9F9",
"G.	c #706E6E",
"H.	c #555353",
"I.	c #343332",
"J.	c #272626",
"K.	c #262524",
"L.	c #2C2B2A",
"M.	c #D6D6D6",
"N.	c #1C191A",
"O.	c #252424",
"P.	c #262425",
"Q.	c #262423",
"R.	c #242323",
"S.	c #F4F4F4",
"T.	c #363534",
"U.	c #252323",
"V.	c #252324",
"W.	c #252423",
"X.	c #1E1D1D",
"Y.	c #797878",
"Z.	c #747373",
"`.	c #1F1E1E",
" +	c #2D2B2B",
".+	c #989898",
"++	c #1D1B1B",
"@+	c #232222",
"#+	c #232122",
"$+	c #232221",
"%+	c #CDCDCD",
"&+	c #A5A4A4",
"*+	c #1B1A1A",
"=+	c #B3B2B2",
"-+	c #9A9999",
";+	c #1B191A",
">+	c #212020",
",+	c #212120",
"'+	c #212021",
")+	c #ADACAC",
"!+	c #767676",
"~+	c #1C1B1B",
"{+	c #202020",
"]+	c #20201F",
"^+	c #201F1F",
"/+	c #21201F",
"(+	c #BABABA",
"_+	c #393838",
":+	c #211F20",
"<+	c #201F20",
"[+	c #DEDEDE",
"}+	c #161515",
"|+	c #1F1F1E",
"1+	c #1F1E1F",
"2+	c #1E1E1D",
"3+	c #333232",
"4+	c #6D6D6C",
"5+	c #1E1E1E",
"6+	c #1E1D1E",
"7+	c #1F1D1E",
"8+	c #131212",
"9+	c #9F9F9F",
"0+	c #282828",
"a+	c #1E1D1C",
"b+	c #313030",
"c+	c #616161",
"d+	c #1C1C1C",
"e+	c #1D1C1C",
"f+	c #B6B6B6",
"g+	c #898989",
"h+	c #101010",
"i+	c #1C1D1C",
"j+	c #191919",
"k+	c #686767",
"l+	c #6F6F6F",
"m+	c #181818",
"n+	c #1C1B1C",
"o+	c #1A1A1A",
"p+	c #2A2A2A",
"q+	c #4A4A4A",
"r+	c #171817",
"s+	c #1A1B1A",
"t+	c #1B1B1B",
"u+	c #1A1B1B",
"v+	c #171717",
"w+	c #1B1A1B",
"      . . + @ # . . @ . # @ . @ . # # + @ . # @ + @ # @ @       ",
"  . $ # + # # @ . . # + @ . + . + # . % & + # @ . @ # @ & & *   ",
"  & . # + + = . # @ @ # . @ # @ # # + @ - ; @ @ # # # & # > . ; ",
", & , , , , ' , , ) , , , ) , , , , , ! ~ , , , , , { ~ ] # , ' ",
", , ^ / / , / / / / / / ( _ / , / : , < [ / / , / } | 1 2 / / / ",
"3 3 3 3 3 3 4 3 4 3 3 3 5 6 + 3 3 7 / 8 9 3 0 a b c d e 3 3 3 3 ",
"f g f g a f h f i g f j k l m n o p q n r s j t u d v a f f i f ",
"w f f f f x f f } y z A B C D E F G H I J K L M N O f f f f f f ",
"P P Q e e v R S T U V V V V V W X Y Z `  ...Y +.& e Q P P P e e ",
"j j R Q @.#.$.%.V V V V V V &.V V V *.=.-.;.>.u < j Q j j j j j ",
",.,.'.).j !.V V W Y ~.{.].^.V V &.V V V V /.(._.:.Q @.j ,.,.,.,.",
"<.<.).N [.}.|.1.2.3.4.5.6.7.G 8.9.V V &.V *.0.a.b.< P <.k ).).c.",
"k c.6.d.e.f.y g.k k <.k h.k i.y 1.j.V &.V &.k.l.C m.n.o.o p.h.h.",
"q.r.s.t.r.q.u.q.q.q.q.q.q.q.q.q.o.v.w.V V V x.y.G g.q.q.q.u.q.q.",
"z.g.A.B.q.C.C.D.g.g.g.C.q.g.i.i.q.% f.E.F.&.V G.H.I.J.z.g.D.g.g.",
"g.g.K.g.g.g.g.g.g.g.g.g.g.g.g.g.g.g.,.L.y.V V M.N.).g.g.g.g.g.g.",
"#.#.O.#.#.#.#.#.#.P.Q.O.#.O.#.#.#.#.#.R.r.S.V V T.U.O.O.#.#.#.#.",
"V.O.O.O.O.O.O.O.O.O.O.O.O.W.W.O.O.O.O.O.X.Y.V V Z.`.#.O.O.O.O.O.",
"U.U.U.R.R.U.U.U.U.U.U.U.U.R.U.U.U.U.U.U.r. +/.V .+++U.U.U.U.U.U.",
"@+@+@+@+@+#+@+@+@+@+@+@+@+r.@+@+$+@+@+@+@+J.%+V &+*+#+@+@+@+@+@+",
"@+@+$+#+#+@+$+$+$+@+@+@+4.@+$+#+4.@+$+@+#+O.=+V -+;+@+4.@+#+4.$+",
">+>+>+,+>+>+>+>+>+>+>+>+>+>+>+,+>+>+'+>+>+R.)+V !+~+>+>+>+>+'+>+",
">+{+]+>+>+^+>+>+{+{+/+>+>+>+{+{+>+>+>+>+>+R.(+V _+`.:+>+{+:+>+>+",
"^+{+:+^+^+{+^+]+<+^+{+<+^+{+^+^+^+^+<+^+^+O.[+[+}+^+^+]+<+]+^+^+",
"`.`.|+`.`.`.`.`.`.1+`.`.`.`.`.`.`.`.`.`.2+3+V 4+~+`.1+`.`.`.`.`.",
"5+5+5+5+5+5+2+6+2+7+`.6+6+5+`.5+6+5+6+5+8+9+[+0+`.2+5+5+5+5+5+5+",
"X.X.X.X.X.X.X.a+6+X.X.X.X.X.X.B.X.B.2+~+b+V c+~+X.a+6+a+X.X.a+X.",
"d+d+d+d+d+d+d+d+d+d+d+d+d+d+d+d+d+d+e+X.f+g+h+e+i+d+d+d+d+d+d+d+",
"d+d+d+d+d+d+d+d+d+d+d+d+d+d+d+d+d+d+j+k+l+m+d+d+d+d+n+d+n+d+d+d+",
"  o+o+o+o+o+o+o+*+o+o+o+o+o+o+o+o+j+p+q+r+o+o+o+o+o+s+o+o+o+o+o+",
"  t+t+t+t+t+t+t+u+t+t+t+t+t+t+t+t+t+j+v+t+t+t+t+t+t+w+t+t+t+t+t+",
"    t+t+t+t+t+t+t+t+t+t+t+t+t+t+t+t+t+t+t+t+t+t+t+t+t+t+t+t+t+  "};
